<svg width="54" height="54" viewBox="0 0 54 54" fill="none" xmlns="http://www.w3.org/2000/svg">
<rect width="54" height="54" rx="2" fill="#F6F6F9"/>
<g clip-path="url(#clip0_1393_756)">
<path d="M15.015 38.6346L26.5751 42.0056V39.0309L15.015 35.6599V38.6346Z" fill="#4DF189"/>
<path d="M39.1344 35.6599L27.5743 39.0309V42.0056L39.1344 38.6346V35.6599Z" fill="#4DF189"/>
<path d="M17.5245 14.5153H19.5344L17.5245 12.5054V14.5153Z" fill="#1C2436"/>
<path d="M39.634 14.5153H41.6439L39.634 12.5054V14.5153Z" fill="#1C2436"/>
<path d="M42.1493 15.5203H38.629V12H34.1095V23.0547H37.1244V24.0597C37.1244 24.8924 36.4468 25.5701 35.6141 25.5701H34.1095C32.7255 25.5701 31.5942 26.6956 31.5942 28.0854V28.8836L30.4399 27.7293L29.7278 28.4414L32.0938 30.8074L34.4598 28.4414L33.7477 27.7293L32.5934 28.8836V28.0796C32.5934 27.2469 33.271 26.5693 34.1037 26.5693H35.6141C36.9981 26.5693 38.1294 25.4437 38.1294 24.054V23.049H42.1493V15.5203ZM35.6141 14.5153H37.624V15.5203H35.6141V14.5153ZM40.639 21.5502H35.6141V20.5452H40.639V21.5502ZM40.639 19.5402H35.6141V18.5352H40.639V19.5402ZM40.639 17.5302H35.6141V16.5253H40.639V17.5302Z" fill="#1C2436"/>
<path d="M28.7286 32.7484L29.4407 33.4605L27.0747 35.8265L24.7087 33.4605L25.4208 32.7484L26.5751 33.9027V31.2438L15.015 34.609L27.0747 38.1293L39.1344 34.609L27.5743 31.238V33.8969L28.7286 32.7484Z" fill="#4DF189"/>
<path d="M27.0747 31.0946L27.58 31.2439V23.0547H31.1003V15.5203H27.58V12H23.0547V23.0547H26.575V31.2439L27.0747 31.0946ZM27.5743 21.5502H26.5693V20.5452H27.5743V21.5502ZM29.5842 21.5502H28.5793V20.5452H29.5842V21.5502ZM24.5593 14.5153H26.5693V15.5203H24.5593V14.5153ZM24.5593 16.5253H29.5842V17.5302H24.5593V16.5253ZM24.5593 18.5352H29.5842V19.5402H24.5593V18.5352ZM25.5643 21.5502H24.5593V20.5452H25.5643V21.5502Z" fill="#1C2436"/>
<path d="M16.0199 24.0597C16.0199 25.4437 17.1455 26.575 18.5352 26.575H20.0398C20.8725 26.575 21.5502 27.2527 21.5502 28.0854V28.8836L20.3959 27.7293L19.6838 28.4414L22.0498 30.8074L24.4158 28.4414L23.7037 27.7293L22.5494 28.8836V28.0796C22.5494 26.6956 21.4238 25.5643 20.0341 25.5643H18.5237C17.691 25.5643 17.0134 24.8867 17.0134 24.054V23.049H20.0398V15.5203H16.5253V12H12V23.0547H16.0199V24.0597ZM13.5046 14.5153H15.5145V15.5203H13.5046V14.5153ZM13.5046 16.5253H18.5295V17.5302H13.5046V16.5253ZM13.5046 18.5352H18.5295V19.5402H13.5046V18.5352ZM13.5046 20.5452H18.5295V21.5502H13.5046V20.5452Z" fill="#1C2436"/>
<path d="M28.5792 14.5153H30.5892L28.5792 12.5054V14.5153Z" fill="#1C2436"/>
</g>
<defs>
<clipPath id="clip0_1393_756">
<rect width="30.1493" height="30" fill="white" transform="translate(12 12)"/>
</clipPath>
</defs>
</svg>
