<svg width="101" height="100" viewBox="0 0 101 100" fill="none" xmlns="http://www.w3.org/2000/svg">
<mask id="mask0_5892_17669" style="mask-type:alpha" maskUnits="userSpaceOnUse" x="0" y="0" width="101" height="100">
<rect x="0.587891" y="0.142578" width="99.75" height="99.75" fill="#D9D9D9"/>
</mask>
<g mask="url(#mask0_5892_17669)">
<path d="M25.5254 95.7363C22.0618 95.7363 19.1178 94.5241 16.6934 92.0996C14.2689 89.6751 13.0566 86.7311 13.0566 83.2676C13.0566 79.804 14.2689 76.86 16.6934 74.4355C19.1178 72.0111 22.0618 70.7988 25.5254 70.7988C26.4952 70.7988 27.3957 70.9027 28.227 71.1105C29.0582 71.3184 29.8548 71.5954 30.6168 71.9418L36.5395 64.5645C34.5999 62.4171 33.2491 59.9926 32.4871 57.291C31.7251 54.5895 31.552 51.8879 31.9676 49.1863L23.5512 46.3809C22.3736 48.1126 20.8842 49.498 19.0832 50.5371C17.2822 51.5762 15.2733 52.0957 13.0566 52.0957C9.5931 52.0957 6.64909 50.8835 4.22461 48.459C1.80013 46.0345 0.587891 43.0905 0.587891 39.627C0.587891 36.1634 1.80013 33.2194 4.22461 30.7949C6.64909 28.3704 9.5931 27.1582 13.0566 27.1582C16.5202 27.1582 19.4642 28.3704 21.8887 30.7949C24.3132 33.2194 25.5254 36.1634 25.5254 39.627V40.4582L33.9418 43.3676C35.3272 40.8738 37.1809 38.7611 39.5029 37.0293C41.822 35.2975 44.4363 34.1892 47.3457 33.7043V24.6645C44.6441 23.9025 42.4095 22.4298 40.6417 20.2464C38.8767 18.0657 37.9941 15.5207 37.9941 12.6113C37.9941 9.14779 39.2064 6.20378 41.6309 3.7793C44.0553 1.35482 46.9993 0.142578 50.4629 0.142578C53.9264 0.142578 56.8704 1.35482 59.2949 3.7793C61.7194 6.20378 62.9316 9.14779 62.9316 12.6113C62.9316 15.5207 62.0311 18.0657 60.2301 20.2464C58.429 22.4298 56.2124 23.9025 53.5801 24.6645V33.7043C56.4895 34.1892 59.1051 35.2975 61.4271 37.0293C63.7463 38.7611 65.5986 40.8738 66.984 43.3676L75.4004 40.4582V39.627C75.4004 36.1634 76.6126 33.2194 79.0371 30.7949C81.4616 28.3704 84.4056 27.1582 87.8691 27.1582C91.3327 27.1582 94.2767 28.3704 96.7012 30.7949C99.1256 33.2194 100.338 36.1634 100.338 39.627C100.338 43.0905 99.1256 46.0345 96.7012 48.459C94.2767 50.8835 91.3327 52.0957 87.8691 52.0957C85.6525 52.0957 83.627 51.5762 81.7927 50.5371C79.9556 49.498 78.4829 48.1126 77.3746 46.3809L68.9582 49.1863C69.3738 51.8879 69.2007 54.5714 68.4387 57.237C67.6767 59.9053 66.3259 62.3478 64.3863 64.5645L70.309 71.8379C71.071 71.4915 71.8676 71.2311 72.6988 71.0565C73.5301 70.8847 74.4306 70.7988 75.4004 70.7988C78.8639 70.7988 81.8079 72.0111 84.2324 74.4355C86.6569 76.86 87.8691 79.804 87.8691 83.2676C87.8691 86.7311 86.6569 89.6751 84.2324 92.0996C81.8079 94.5241 78.8639 95.7363 75.4004 95.7363C71.9369 95.7363 68.9928 94.5241 66.5684 92.0996C64.1439 89.6751 62.9316 86.7311 62.9316 83.2676C62.9316 81.8822 63.1575 80.5494 63.6091 79.2693C64.058 77.9864 64.6634 76.8254 65.4254 75.7863L59.5027 68.409C56.6626 70.0022 53.6327 70.7988 50.413 70.7988C47.1905 70.7988 44.1592 70.0022 41.3191 68.409L35.5004 75.7863C36.2624 76.8254 36.8692 77.9864 37.3208 79.2693C37.7697 80.5494 37.9941 81.8822 37.9941 83.2676C37.9941 86.7311 36.7819 89.6751 34.3574 92.0996C31.9329 94.5241 28.9889 95.7363 25.5254 95.7363Z" fill="#5E81F4"/>
</g>
</svg>
