<svg width="54" height="54" viewBox="0 0 54 54" fill="none" xmlns="http://www.w3.org/2000/svg">
<rect width="54" height="54" rx="2" fill="#F6F6F9"/>
<g clip-path="url(#clip0_1393_1269)">
<path d="M41.4555 33.3037L40.8915 33.0217L28.1791 39.3779C27.4495 39.7475 26.5505 39.7475 25.8209 39.3779L13.1085 33.0217L12.5445 33.3037C12.2467 33.4526 12.0586 33.7569 12.0586 34.0898C12.0586 34.4228 12.2467 34.7271 12.5445 34.8759L26.607 41.9072C26.8543 42.0309 27.1457 42.0309 27.393 41.9072L41.4555 34.8759C41.7533 34.7271 41.9414 34.4228 41.9414 34.0898C41.9414 33.7569 41.7533 33.4526 41.4555 33.3037Z" fill="#1C2436"/>
<path d="M41.4555 29.2022L40.8915 28.9202L28.1791 35.2763C27.4495 35.6459 26.5505 35.6459 25.8209 35.2763L13.1085 28.9202L12.5445 29.2022C12.2467 29.351 12.0586 29.6553 12.0586 29.9883C12.0586 30.3212 12.2467 30.6255 12.5445 30.7744L26.607 37.8056C26.8543 37.9294 27.1457 37.9294 27.393 37.8056L41.4555 30.7744C41.7533 30.6255 41.9414 30.3212 41.9414 29.9883C41.9414 29.6553 41.7533 29.351 41.4555 29.2022Z" fill="#1C2436"/>
<path d="M19.2707 22.3429L21.0285 25.3876C21.2712 25.8079 21.8088 25.952 22.2292 25.7092L22.9529 25.2913C23.3918 25.6241 23.8632 25.8983 24.3633 26.1117V26.9414C24.3633 27.4268 24.7568 27.8203 25.2422 27.8203H28.7578C29.2432 27.8203 29.6367 27.4268 29.6367 26.9414V26.1117C30.1368 25.8983 30.6082 25.6241 31.0471 25.2913L31.7708 25.7092C32.1912 25.9519 32.7287 25.8079 32.9714 25.3876L34.7292 22.3429C34.9719 21.9226 34.8279 21.385 34.4075 21.1423L33.6868 20.7262C33.7211 20.4525 33.7383 20.1797 33.7383 19.9102C33.7383 19.6406 33.7211 19.3678 33.6869 19.0941L34.4076 18.678C34.828 18.4353 34.972 17.8978 34.7293 17.4774L32.9715 14.4328C32.7288 14.0124 32.1912 13.8683 31.7709 14.1111L31.0471 14.5289C30.6083 14.1962 30.1368 13.9219 29.6367 13.7086V12.8789C29.6367 12.3935 29.2432 12 28.7578 12H25.2422C24.7568 12 24.3633 12.3935 24.3633 12.8789V13.7086C23.8632 13.9219 23.3917 14.1962 22.9529 14.5289L22.2292 14.111C21.8088 13.8683 21.2713 14.0123 21.0286 14.4327L19.2708 17.4773C19.0281 17.8977 19.1721 18.4352 19.5925 18.6779L20.3132 19.0941C20.279 19.3678 20.2617 19.6406 20.2617 19.9102C20.2617 20.1797 20.2789 20.4525 20.3131 20.7262L19.5924 21.1423C19.1721 21.385 19.028 21.9226 19.2707 22.3429ZM27 17.2734C28.4539 17.2734 29.6367 18.4563 29.6367 19.9102C29.6367 21.364 28.4539 22.5469 27 22.5469C25.5461 22.5469 24.3633 21.364 24.3633 19.9102C24.3633 18.4563 25.5461 17.2734 27 17.2734Z" fill="#4DF189"/>
<path d="M12.5445 26.6728L26.607 33.704C26.8543 33.8278 27.1457 33.8278 27.393 33.704L41.4555 26.6728C41.7533 26.5239 41.9414 26.2196 41.9414 25.8867C41.9414 25.5537 41.7533 25.2494 41.4555 25.1006L36.5039 22.6248C36.4458 22.8291 36.3625 23.0296 36.2517 23.2217L34.4938 26.2664C34.0243 27.0796 33.149 27.5849 32.2095 27.5849C32.2095 27.5849 32.2095 27.5849 32.2095 27.5849C31.9154 27.5849 31.6239 27.5353 31.3474 27.4395C31.1138 28.656 30.0414 29.5781 28.7578 29.5781H25.2422C23.9586 29.5781 22.8862 28.656 22.6527 27.4395C22.3762 27.5353 22.0846 27.5849 21.7905 27.5849C20.851 27.5849 19.9757 27.0796 19.5062 26.2662L17.7484 23.2218C17.6385 23.0315 17.5538 22.8314 17.4948 22.6255L12.5445 25.1006C12.2467 25.2494 12.0586 25.5537 12.0586 25.8867C12.0586 26.2196 12.2467 26.5239 12.5445 26.6728Z" fill="#1C2436"/>
</g>
<defs>
<clipPath id="clip0_1393_1269">
<rect width="30" height="30" fill="white" transform="translate(12 12)"/>
</clipPath>
</defs>
</svg>
