<svg width="192" height="27" viewBox="0 0 192 27" fill="none" xmlns="http://www.w3.org/2000/svg">
<g clip-path="url(#clip0_1258_7485)">
<path d="M0 1.51123H8.36423C10.0308 1.51123 11.5873 1.84527 13.0337 2.51336C14.4802 3.18144 15.738 4.08812 16.8228 5.2175C17.8919 6.34688 18.7409 7.66714 19.3698 9.17828C19.9987 10.6894 20.3131 12.2801 20.3131 13.9503C20.3131 15.6205 19.9987 17.1635 19.3698 18.611C18.7409 20.0585 17.8919 21.3151 16.8228 22.365C15.7537 23.4307 14.4802 24.2579 13.0337 24.8623C11.5873 25.4668 10.0308 25.769 8.36423 25.769H0V1.51123ZM8.36423 21.6173C9.46479 21.6173 10.4867 21.4265 11.4301 21.0447C12.3734 20.6629 13.2067 20.138 13.9299 19.454C14.6531 18.77 15.2191 17.9588 15.6279 17.0203C16.0367 16.0818 16.2411 15.0638 16.2411 13.9503C16.2411 12.8686 16.0367 11.8188 15.6279 10.8167C15.2191 9.81455 14.6531 8.92377 13.9299 8.16025C13.2067 7.39672 12.3734 6.79227 11.4301 6.34688C10.4867 5.90149 9.46479 5.6788 8.36423 5.6788H4.11923V21.6173H8.36423Z" fill="#1C2436"/>
<path d="M74.3975 17.2113C74.3975 15.891 74.649 14.6662 75.1364 13.5209C75.6238 12.3756 76.2999 11.3894 77.1489 10.5304C77.9979 9.67147 78.9884 9.01929 80.1204 8.52618C81.2524 8.03307 82.463 7.77856 83.7679 7.77856C85.0729 7.77856 86.2835 8.03307 87.4155 8.52618C88.5475 9.01929 89.538 9.68737 90.3713 10.5304C91.2045 11.3735 91.8649 12.3756 92.368 13.5209C92.8711 14.6662 93.1069 15.891 93.1069 17.2113C93.1069 18.5315 92.8554 19.7563 92.368 20.9016C91.8806 22.0469 91.2203 23.0331 90.3713 23.8921C89.5223 24.7511 88.5475 25.4032 87.4155 25.8963C86.2835 26.3895 85.0729 26.644 83.7679 26.644C82.463 26.644 81.2524 26.3895 80.1204 25.8963C78.9884 25.4032 77.9979 24.7351 77.1489 23.8921C76.2999 23.049 75.6395 22.0469 75.1364 20.9016C74.6333 19.7563 74.3975 18.5315 74.3975 17.2113ZM78.3752 17.2113C78.3752 17.943 78.5167 18.6588 78.7997 19.311C79.0827 19.9631 79.4758 20.5358 79.9474 21.0289C80.4348 21.522 81.0008 21.9037 81.6454 22.1901C82.3058 22.4764 82.9975 22.6196 83.7208 22.6196C84.444 22.6196 85.1515 22.4764 85.7961 22.1901C86.4564 21.9037 87.0224 21.522 87.4941 21.0289C87.9815 20.5358 88.3588 19.979 88.6418 19.311C88.9248 18.6588 89.0663 17.9589 89.0663 17.2113C89.0663 16.4796 88.9248 15.7637 88.6418 15.1116C88.3588 14.4594 87.9658 13.8868 87.4941 13.3936C87.0067 12.9005 86.4407 12.5188 85.7961 12.2325C85.1357 11.9461 84.444 11.803 83.7208 11.803C82.9975 11.803 82.29 11.9461 81.6454 12.2325C80.9851 12.5188 80.4191 12.9005 79.9474 13.3936C79.46 13.8868 79.0827 14.4435 78.7997 15.1116C78.5167 15.7797 78.3752 16.4796 78.3752 17.2113Z" fill="#1C2436"/>
<path d="M26.0203 17.3543C26.036 18.0701 26.2089 18.7382 26.5076 19.3585C26.8064 19.9789 27.1994 20.5197 27.6711 20.981C28.1428 21.4423 28.7088 21.8082 29.3534 22.0786C29.998 22.349 30.674 22.4762 31.3815 22.4762C32.5764 22.4762 33.5827 22.174 34.4317 21.5855C35.2807 20.9969 35.8938 20.2016 36.2869 19.2154H40.6419C40.2489 20.5356 39.7301 21.6491 39.1012 22.5876C38.4566 23.5102 37.7333 24.2578 36.9001 24.8463C36.0825 25.419 35.202 25.8485 34.2587 26.1189C33.3154 26.3893 32.3563 26.5166 31.3815 26.5166C30.0766 26.5166 28.866 26.262 27.734 25.7689C26.602 25.2758 25.6115 24.6077 24.7782 23.7647C23.9449 22.9216 23.2689 21.9195 22.7972 20.7742C22.3098 19.6289 22.074 18.4041 22.074 17.0839C22.074 15.7636 22.3255 14.5388 22.7972 13.3935C23.2846 12.2482 23.9449 11.262 24.7782 10.403C25.6115 9.55997 26.602 8.89189 27.734 8.38287C28.866 7.88976 30.0766 7.63525 31.3815 7.63525C32.828 7.63525 34.1172 7.90567 35.2492 8.43059C36.3969 8.97142 37.3717 9.67132 38.1578 10.5621C38.9597 11.4529 39.5728 12.4868 40.0288 13.6639C40.469 14.841 40.7048 16.0658 40.7363 17.3384L26.0203 17.3543ZM36.2712 14.6501C35.9253 13.6798 35.3278 12.8527 34.4474 12.1687C33.5669 11.4847 32.5607 11.1506 31.3973 11.1506C30.2338 11.1506 29.2119 11.4847 28.3472 12.1687C27.4824 12.8527 26.8693 13.6798 26.5234 14.6501H36.2712Z" fill="#1C2436"/>
<path d="M43.8492 8.43059H47.8898V9.4009C48.4087 8.78054 48.9747 8.31924 49.5721 8.04883C50.1696 7.77842 50.8456 7.63525 51.6317 7.63525C52.7952 7.63525 53.8486 7.87385 54.8076 8.35106C55.751 8.82826 56.5842 9.46453 57.2917 10.2758C58.015 9.46453 58.8954 8.82826 59.9173 8.35106C60.9393 7.87385 62.0241 7.63525 63.1876 7.63525C64.2567 7.63525 65.2786 7.84204 66.222 8.25562C67.1653 8.66919 67.9986 9.24183 68.6904 9.95764C69.3821 10.6734 69.9481 11.5165 70.3569 12.4709C70.7657 13.4253 70.9701 14.4592 70.9701 15.5409V25.7689H66.9137V15.5568C66.9137 15.0478 66.8194 14.5706 66.615 14.0934C66.4264 13.6321 66.1591 13.2344 65.8132 12.8845C65.4673 12.5345 65.0742 12.2641 64.6183 12.0573C64.1623 11.8505 63.675 11.7392 63.1719 11.7392C62.6373 11.7392 62.1656 11.8346 61.7097 12.0573C61.2695 12.2641 60.8764 12.5504 60.5305 12.8845C60.1846 13.2185 59.9173 13.6321 59.7287 14.0934C59.54 14.5547 59.43 15.0478 59.43 15.5568V25.7848H55.3893V15.5568C55.3893 15.0319 55.295 14.5229 55.0906 14.0616C54.9019 13.6003 54.6347 13.2026 54.2888 12.8527C53.9429 12.5027 53.5498 12.2323 53.0939 12.0414C52.6379 11.8505 52.1506 11.7392 51.616 11.7392C51.0814 11.7392 50.6098 11.8346 50.1538 12.0573C49.7136 12.2641 49.3206 12.5504 48.9747 12.9004C48.6288 13.2662 48.3615 13.6639 48.1728 14.1252C47.9842 14.5865 47.8741 15.0637 47.8741 15.5409V25.7689H43.8335L43.8492 8.43059Z" fill="#1C2436"/>
<path d="M100.151 17.0839C100.151 17.8156 100.292 18.5314 100.575 19.1835C100.858 19.8357 101.236 20.4084 101.723 20.9015C102.195 21.3946 102.776 21.7763 103.421 22.0627C104.066 22.349 104.757 22.4921 105.496 22.4921C106.392 22.4921 107.194 22.3172 107.933 21.9831C108.672 21.6491 109.254 21.156 109.71 20.5038H114.159C113.719 21.5377 113.184 22.4444 112.571 23.208C111.942 23.9715 111.251 24.5918 110.496 25.0849C109.741 25.5781 108.939 25.928 108.09 26.1666C107.241 26.4052 106.377 26.5166 105.481 26.5166C104.176 26.5166 102.965 26.262 101.833 25.7689C100.701 25.2758 99.7105 24.6077 98.8773 23.7647C98.044 22.9216 97.3836 21.9195 96.8805 20.7742C96.3931 19.6289 96.1416 18.4041 96.1416 17.0839C96.1416 15.7636 96.3774 14.5388 96.8805 13.3935C97.3679 12.2482 98.0283 11.262 98.8773 10.403C99.7105 9.55997 100.701 8.89189 101.833 8.38287C102.965 7.88976 104.176 7.63525 105.481 7.63525C106.33 7.63525 107.179 7.7466 108.028 7.9693C108.877 8.19199 109.694 8.54194 110.465 9.01914C111.235 9.51225 111.927 10.1167 112.571 10.8802C113.216 11.6278 113.75 12.5345 114.175 13.6003H109.678C109.175 12.9004 108.562 12.4073 107.823 12.105C107.084 11.8028 106.298 11.6597 105.465 11.6597C104.726 11.6597 104.05 11.8028 103.39 12.0891C102.745 12.3755 102.179 12.7572 101.692 13.2503C101.22 13.7434 100.827 14.3002 100.544 14.9683C100.292 15.6363 100.151 16.3362 100.151 17.0839Z" fill="#1C2436"/>
<path d="M127.885 11.9142C127.146 11.9142 126.422 12.0574 125.668 12.3278C124.929 12.5982 124.253 13.0118 123.655 13.5367C123.058 14.0775 122.57 14.7138 122.193 15.4932C121.816 16.2726 121.627 17.1475 121.627 18.1178V25.7849H117.649V8.43063H121.627V10.7212C122.083 10.1486 122.602 9.65545 123.184 9.25778C123.765 8.86011 124.363 8.54198 124.992 8.30337C125.621 8.06477 126.218 7.8898 126.816 7.77845C127.413 7.6671 127.948 7.61938 128.419 7.61938L127.885 11.9142Z" fill="#1C2436"/>
<path d="M129.63 17.0839C129.63 15.7636 129.881 14.5388 130.369 13.3935C130.856 12.2482 131.532 11.262 132.381 10.403C133.23 9.54406 134.221 8.89189 135.353 8.38287C136.485 7.88976 137.695 7.63525 139 7.63525C140.305 7.63525 141.516 7.88976 142.648 8.38287C143.78 8.87598 144.77 9.54406 145.604 10.403C146.437 11.262 147.097 12.2482 147.6 13.3935C148.104 14.5388 148.339 15.7636 148.339 17.0839V25.7848H144.362V24.8145C142.805 25.9439 141.029 26.5166 139.016 26.5166C137.601 26.5166 136.312 26.278 135.164 25.7848C134.016 25.2917 133.026 24.6236 132.208 23.7806C131.391 22.9216 130.762 21.9195 130.322 20.7742C129.881 19.6289 129.63 18.4041 129.63 17.0839ZM133.608 17.0839C133.608 17.8156 133.749 18.5314 134.032 19.1835C134.315 19.8357 134.708 20.4084 135.18 20.9015C135.667 21.3946 136.233 21.7763 136.878 22.0627C137.538 22.349 138.23 22.4921 138.953 22.4921C139.676 22.4921 140.384 22.3649 141.029 22.0945C141.673 21.8241 142.255 21.4582 142.727 20.9651C143.198 20.472 143.591 19.9153 143.874 19.2472C144.157 18.595 144.299 17.8633 144.299 17.0839C144.299 16.3521 144.157 15.6363 143.874 14.9842C143.591 14.332 143.198 13.7593 142.727 13.2662C142.239 12.7731 141.673 12.3914 141.029 12.105C140.368 11.8187 139.676 11.6756 138.953 11.6756C138.23 11.6756 137.522 11.8187 136.878 12.105C136.218 12.3914 135.652 12.7731 135.18 13.2662C134.692 13.7593 134.315 14.3161 134.032 14.9842C133.765 15.6363 133.608 16.3362 133.608 17.0839Z" fill="#1C2436"/>
<path d="M151.751 12.471V8.4466H153.323V1.49536H157.301V8.4307H161.31V12.4551H157.301V25.7849H153.323V12.4551H151.751V12.471Z" fill="#1C2436"/>
<path d="M164.47 2.57689C164.47 1.82928 164.706 1.22482 165.194 0.731711C165.681 0.238602 166.263 0 166.939 0C167.678 0 168.275 0.238602 168.763 0.731711C169.25 1.22482 169.486 1.82928 169.486 2.57689C169.486 3.27679 169.25 3.86534 168.763 4.34254C168.275 4.83565 167.678 5.07425 166.939 5.07425C166.247 5.07425 165.665 4.83565 165.194 4.34254C164.722 3.86534 164.47 3.27679 164.47 2.57689ZM164.926 8.43057H168.967V25.7848H164.926V8.43057Z" fill="#1C2436"/>
<path d="M177.913 14.5389L184.186 8.4307H189.532L182.016 15.8273L189.532 25.7849H184.359L179.045 18.7383L177.944 19.8199V25.7849H173.935V1.49536H177.913V14.5389Z" fill="#1C2436"/>
<path fill-rule="evenodd" clip-rule="evenodd" d="M81.7018 14.5132L85.504 18.3599L83.6475 20.2383L79.8452 16.3916L81.7018 14.5132Z" fill="#4DF189"/>
<path fill-rule="evenodd" clip-rule="evenodd" d="M90.5573 9.46851L92.414 11.3469L83.6425 20.2215L81.7859 18.3432L90.5573 9.46851Z" fill="#4DF189"/>
</g>
<defs>
<clipPath id="clip0_1258_7485">
<rect width="192" height="26.6438" fill="white"/>
</clipPath>
</defs>
</svg>
