<svg width="54" height="54" viewBox="0 0 54 54" fill="none" xmlns="http://www.w3.org/2000/svg">
<rect width="54" height="54" rx="2" fill="#F6F6F9"/>
<g clip-path="url(#clip0_1393_3693)">
<path d="M19.6758 18.5625V23.543C19.6758 24.6738 20.5958 25.5938 21.7266 25.5938H32.2734C33.4042 25.5938 34.3242 24.6738 34.3242 23.543V18.5625H19.6758ZM29.9297 22.0781C29.4443 22.0781 29.0508 21.6846 29.0508 21.1992C29.0508 20.7138 29.4443 20.3203 29.9297 20.3203C30.4151 20.3203 30.8086 20.7138 30.8086 21.1992C30.8086 21.6846 30.4151 22.0781 29.9297 22.0781Z" fill="#1C2436"/>
<path d="M34.9102 12V15.0469H33.1523V12H31.3945V15.0469H29.6367V12H27.8789V15.0469H26.1211V12H24.3633V15.0469H22.6055V12H20.8477V15.0469H19.0898V12H15.2227V20.4961C15.2227 21.6269 16.1426 22.5469 17.2734 22.5469H17.918V16.8047H36.082V22.5469H36.7266C37.8574 22.5469 38.7773 21.6269 38.7773 20.4961V12H34.9102Z" fill="#1C2436"/>
<path d="M13.7578 39.6562C13.7578 39.3332 14.0207 39.0703 14.3438 39.0703H39.6562C40.9486 39.0703 42 38.0189 42 36.7266C42 35.4342 40.9486 34.3828 39.6562 34.3828H26.1953C26.4561 35.3926 27.3748 36.1406 28.4648 36.1406H39.6562C39.9793 36.1406 40.2422 36.4035 40.2422 36.7266C40.2422 37.0496 39.9793 37.3125 39.6562 37.3125H14.3438C13.0514 37.3125 12 38.3639 12 39.6562C12 40.9486 13.0514 42 14.3438 42H42V40.2422H14.3438C14.0207 40.2422 13.7578 39.9793 13.7578 39.6562Z" fill="#4DF189"/>
<path d="M28.4648 30.8671H25.5352C25.1315 30.8671 24.7393 30.8176 24.3633 30.7266V32.6249H29.6367V30.7266C29.2607 30.8176 28.8685 30.8671 28.4648 30.8671Z" fill="#1C2436"/>
<path d="M22.6661 27.3516C23.2005 28.3939 24.2855 29.1094 25.5352 29.1094H28.4649C29.7145 29.1094 30.7995 28.3939 31.3339 27.3516H22.6661Z" fill="#1C2436"/>
</g>
<defs>
<clipPath id="clip0_1393_3693">
<rect width="30" height="30" fill="white" transform="translate(12 12)"/>
</clipPath>
</defs>
</svg>
