<svg width="54" height="54" viewBox="0 0 54 54" fill="none" xmlns="http://www.w3.org/2000/svg">
<rect width="54" height="54" rx="2" fill="#F6F6F9"/>
<g clip-path="url(#clip0_1393_6938)">
<path d="M32.8928 30.7501C33.4846 30.7501 33.9643 30.2704 33.9643 29.6786C33.9643 29.0869 33.4846 28.6072 32.8928 28.6072C32.3011 28.6072 31.8214 29.0869 31.8214 29.6786C31.8214 30.2704 32.3011 30.7501 32.8928 30.7501Z" fill="#1C2436"/>
<path d="M27 18.4287C20.3572 18.4287 15.3305 23.6096 15.2197 30.5177L16.3056 31.138C16.2976 31.0089 16.2858 30.8814 16.2858 30.7502C16.2896 27.2014 19.1655 24.3254 22.7143 24.3216H31.2858C34.8362 24.3216 37.7143 27.1998 37.7143 30.7502C37.7143 34.3005 34.8362 37.1787 31.2858 37.1787H22.7143C19.842 37.1738 17.3207 35.2662 16.5348 32.5035L15.2528 31.7707C15.6428 37.8451 19.5857 40.9287 27 40.9287C34.8214 40.9287 38.7857 37.5039 38.7857 30.7502C38.7857 23.7258 33.7189 18.4287 27 18.4287ZM26.4643 20.5715H27.5357C27.8316 20.5715 28.0714 20.8114 28.0714 21.1073C28.0714 21.4032 27.8316 21.643 27.5357 21.643H26.4643C26.1684 21.643 25.9286 21.4032 25.9286 21.1073C25.9286 20.8114 26.1684 20.5715 26.4643 20.5715ZM28.6072 23.2501H25.3929C25.097 23.2501 24.8572 23.0103 24.8572 22.7144C24.8572 22.4185 25.097 22.1787 25.3929 22.1787H28.6072C28.903 22.1787 29.1429 22.4185 29.1429 22.7144C29.1429 23.0103 28.903 23.2501 28.6072 23.2501Z" fill="#1C2436"/>
<path d="M13.6072 27C12.7195 27 12 27.7196 12 28.6072V30.75C12 31.6376 12.7195 32.3572 13.6072 32.3572H14.2281C14.1772 31.8391 14.1429 31.3082 14.1429 30.75C14.141 29.4849 14.3004 28.2247 14.6176 27H13.6072Z" fill="#4DF189"/>
<path d="M27 33.9643C27.8876 33.9643 28.6072 33.2448 28.6072 32.3572H25.3929C25.3928 33.2448 26.1124 33.9643 27 33.9643Z" fill="#1C2436"/>
<path d="M21.1072 30.7501C21.6989 30.7501 22.1786 30.2704 22.1786 29.6786C22.1786 29.0869 21.6989 28.6072 21.1072 28.6072C20.5154 28.6072 20.0357 29.0869 20.0357 29.6786C20.0357 30.2704 20.5154 30.7501 21.1072 30.7501Z" fill="#1C2436"/>
<path d="M36.4677 16.9973C32.7081 13.234 27.0772 12.0538 22.123 13.9905C17.1687 15.9272 13.8311 20.6135 13.6205 25.9287H14.692C14.9672 19.3343 20.3934 14.1299 26.9936 14.1299C33.5937 14.1299 39.0199 19.3343 39.2951 25.9287H40.3799C40.2562 22.5631 38.8576 19.3703 36.4677 16.9973Z" fill="#1C2436"/>
<path d="M40.3928 27H39.3825C39.6996 28.2247 39.8591 29.4849 39.8572 30.75C39.8572 31.3082 39.8229 31.8391 39.772 32.3572H40.3929C41.2805 32.3572 42.0001 31.6376 42.0001 30.75V28.6072C42 27.7196 41.2805 27 40.3928 27Z" fill="#4DF189"/>
<path d="M23.25 35.036H21.676C21.2099 35.0358 20.7518 34.9141 20.347 34.6829L18.0434 33.3662C18.9898 35.0576 20.7761 36.1059 22.7143 36.1074H31.2858C34.2445 36.1074 36.6429 33.7089 36.6429 30.7502C36.6429 27.7915 34.2445 25.3931 31.2858 25.3931H22.7143C21.1097 25.3927 19.5896 26.1121 18.5726 27.3531C17.5555 28.5942 17.1487 30.2259 17.4643 31.7991L20.8789 33.7502C21.1215 33.8898 21.3963 33.9636 21.6761 33.9645H23.25C23.5458 33.9645 23.7857 34.2043 23.7857 34.5002C23.7857 34.7961 23.5458 35.036 23.25 35.036ZM21.1072 31.8217C19.9237 31.8217 18.9643 30.8623 18.9643 29.6788C18.9643 28.4954 19.9237 27.536 21.1072 27.536C22.2906 27.536 23.25 28.4954 23.25 29.6788C23.25 30.8623 22.2906 31.8217 21.1072 31.8217ZM32.8928 27.536C34.0763 27.536 35.0357 28.4954 35.0357 29.6788C35.0357 30.8623 34.0762 31.8216 32.8928 31.8216C31.7093 31.8216 30.75 30.8622 30.75 29.6788C30.75 28.4954 31.7094 27.536 32.8928 27.536ZM25.3928 31.286H28.6071C29.1988 31.286 29.6785 31.7657 29.6785 32.3574C29.6785 33.8367 28.4793 35.036 27 35.036C25.5207 35.036 24.3214 33.8367 24.3214 32.3574C24.3214 31.7657 24.8011 31.286 25.3928 31.286Z" fill="#1C2436"/>
</g>
<defs>
<clipPath id="clip0_1393_6938">
<rect width="30" height="30" fill="white" transform="translate(12 12)"/>
</clipPath>
</defs>
</svg>
