<svg width="54" height="54" viewBox="0 0 54 54" fill="none" xmlns="http://www.w3.org/2000/svg">
<rect width="54" height="54" rx="2" fill="#F6F6F9"/>
<g clip-path="url(#clip0_1393_7071)">
<path d="M30.1481 28.3083C30.0111 28.4361 29.8119 28.5 29.5503 28.5H28.6672V26.8408H29.5503C29.8119 26.8408 30.0111 26.9046 30.1481 27.0326C30.2848 27.1604 30.3533 27.3729 30.3533 27.6704C30.3533 27.9677 30.2848 28.1803 30.1481 28.3083Z" fill="#1C2436"/>
<path d="M12 18.6056V35.3945C12 36.6952 13.0581 37.7534 14.3589 37.7534H17.9047V16.2468H14.3589C13.0581 16.2468 12 17.305 12 18.6056Z" fill="#4DF189"/>
<path d="M39.6411 16.2466H19.6636V19.7595H42V18.6054C42 17.3047 40.9419 16.2466 39.6411 16.2466Z" fill="#1C2436"/>
<path d="M19.6636 21.5183V37.7533H39.6411C40.9419 37.7533 42 36.6951 42 35.3944V21.5183H19.6636ZM25.4124 30.3284C25.5456 30.3284 25.6564 30.307 25.7446 30.2641C25.8327 30.2212 25.8957 30.1558 25.9339 30.0675C25.972 29.9795 25.997 29.9068 26.009 29.8496C26.0208 29.7924 26.0316 29.7139 26.0411 29.6139C26.0601 29.3901 26.2436 29.2781 26.5912 29.2781C26.796 29.2781 26.9413 29.315 27.0271 29.3888C27.1128 29.4627 27.1557 29.6021 27.1557 29.8068C27.1557 30.2689 26.9877 30.6333 26.6519 30.9C26.3161 31.1669 25.8862 31.3001 25.3623 31.3001C24.8525 31.3001 24.4393 31.1644 24.1226 30.8928C23.8058 30.6213 23.6474 30.1951 23.6474 29.6139V27.7205C23.6474 27.1394 23.8058 26.713 24.1226 26.4416C24.4393 26.1701 24.8525 26.0344 25.3623 26.0344C25.8862 26.0344 26.3161 26.1606 26.6519 26.4131C26.9877 26.6656 27.1557 27.0132 27.1557 27.4562C27.1557 27.6611 27.1128 27.8004 27.0271 27.8742C26.9413 27.9482 26.7985 27.985 26.5984 27.985C26.2411 27.985 26.0553 27.8732 26.0411 27.6492C26.0268 27.2204 25.8148 27.0061 25.4052 27.0061C24.9765 27.0061 24.7621 27.2443 24.7621 27.7206V29.614C24.7621 30.0902 24.9788 30.3284 25.4124 30.3284ZM31.1177 31.1143C30.9677 31.2383 30.8092 31.3001 30.6425 31.3001C30.4757 31.3001 30.3567 31.2311 30.2853 31.0929L29.3065 29.1923H28.8349V30.9143C28.8349 31.024 28.7801 31.1085 28.6705 31.1679C28.5609 31.2276 28.4299 31.2572 28.2775 31.2572C28.125 31.2572 27.994 31.2275 27.8845 31.1679C27.7749 31.1084 27.7202 31.024 27.7202 30.9143V26.37C27.7202 26.2796 27.7523 26.201 27.8167 26.1343C27.881 26.0676 27.9631 26.0343 28.0632 26.0343H29.5422C30.714 26.0343 31.2999 26.544 31.2999 27.5633C31.2999 28.3064 31.0116 28.79 30.4353 29.0137L31.307 30.5928C31.3308 30.6262 31.3427 30.6691 31.3427 30.7214C31.3427 30.8596 31.2677 30.9906 31.1177 31.1143ZM36.0441 31.1679C35.9345 31.2276 35.8035 31.2572 35.6511 31.2572C35.4987 31.2572 35.3677 31.2275 35.2581 31.1679C35.1485 31.1084 35.0938 31.024 35.0938 30.9143V28.2349L34.4078 29.4067C34.3268 29.5448 34.203 29.6139 34.0363 29.6139C33.8743 29.6139 33.7576 29.5448 33.6862 29.4067L33.0074 28.1634V30.9143C33.0074 31.024 32.9525 31.1085 32.843 31.1679C32.7334 31.2276 32.6024 31.2572 32.45 31.2572C32.2975 31.2572 32.1666 31.2275 32.057 31.1679C31.9474 31.1084 31.8927 31.024 31.8927 30.9143V26.5916C31.8927 26.4011 31.9462 26.2606 32.0535 26.1701C32.1606 26.0796 32.2928 26.0344 32.45 26.0344C32.6644 26.0344 32.8275 26.0665 32.9395 26.1308C33.0513 26.1951 33.1764 26.3488 33.3146 26.5917L34.0505 27.8777L34.7865 26.5917C34.9245 26.3487 35.0496 26.195 35.1616 26.1308C35.2734 26.0665 35.4367 26.0344 35.651 26.0344C35.8082 26.0344 35.9404 26.0796 36.0476 26.1701C36.1547 26.2606 36.2084 26.4011 36.2084 26.5916V30.9143H36.2084C36.2085 31.0239 36.1536 31.1085 36.0441 31.1679Z" fill="#1C2436"/>
</g>
<defs>
<clipPath id="clip0_1393_7071">
<rect width="30" height="30" fill="white" transform="translate(12 12)"/>
</clipPath>
</defs>
</svg>
