<svg width="54" height="54" viewBox="0 0 54 54" fill="none" xmlns="http://www.w3.org/2000/svg">
<rect width="54" height="54" rx="2" fill="#F6F6F9"/>
<g clip-path="url(#clip0_1393_8770)">
<path d="M26.7498 11C23.6918 11 21.2127 13.5406 21.2127 16.5987C21.2127 19.6568 23.6917 22.1358 26.7498 22.1358C29.8079 22.1358 32.2869 19.6568 32.2869 16.5987C32.2869 13.5406 29.8078 11 26.7498 11Z" fill="#1C2436"/>
<path d="M30.8756 30.0416C28.4702 30.0416 27.6474 32.912 27.6393 32.9408C27.6368 32.9496 27.6275 32.9535 27.6247 32.9622C27.6247 32.9621 27.625 32.9621 27.625 32.962C27.5059 33.3471 27.1572 33.614 26.7525 33.6158C26.7515 33.6158 26.7507 33.6158 26.7488 33.6158C26.337 33.6158 25.9747 33.3409 25.8611 32.9444C25.8278 32.8254 25.0067 30.0415 22.6239 30.0415C20.7972 30.0415 19.4201 31.57 19.4201 33.5978C19.4201 36.0113 21.5965 38.4335 25.2032 41.4778C25.5111 41.7373 25.8277 42.0045 26.1524 42.2803C26.4964 42.5726 27.0021 42.5734 27.3463 42.2813C27.6707 42.0059 27.9868 41.7392 28.2936 41.4796C31.0375 39.1648 34.0794 36.1891 34.0794 33.5976C34.0794 31.5701 32.7024 30.0416 30.8756 30.0416Z" fill="#4DF189"/>
<path d="M31.4564 22.228C30.1828 23.3171 28.5586 23.9815 26.7498 23.9815C24.941 23.9815 23.3168 23.317 22.0432 22.228C16.8753 22.7448 12.907 27.0883 12.907 32.3487V33.6407C12.907 36.6307 14.0698 39.4361 16.174 41.5402C16.174 41.5587 16.174 41.5587 16.1924 41.5587C16.7646 42.1309 17.5582 42.4631 18.3703 42.4816C19.7198 42.4478 20.8114 41.424 20.9912 40.1072C19.2709 38.3398 17.5744 36.0751 17.5744 33.5977C17.5744 30.4451 19.9831 28.1958 22.6154 28.1958C22.6172 28.1958 22.6186 28.1961 22.6204 28.1961C22.6216 28.1961 22.6227 28.1958 22.624 28.1958C24.361 28.1958 25.8124 29.1512 26.7507 30.5489C27.6978 29.1379 29.1098 28.1958 30.8757 28.1958C30.8769 28.1958 30.878 28.1961 30.8793 28.1961C30.8811 28.1961 30.8824 28.1958 30.8843 28.1958C33.6806 28.1958 35.9253 30.5944 35.9253 33.5977C35.8383 33.8315 36.2997 36.1073 32.506 40.0824C32.6755 41.4109 33.7714 42.4475 35.1294 42.4816C35.9415 42.4631 36.7352 42.1309 37.3073 41.5587C37.3258 41.5587 37.3258 41.5587 37.3258 41.5402C39.4298 39.4361 40.5926 36.6307 40.5926 33.6407V32.3487C40.5926 27.0883 36.6243 22.7448 31.4564 22.228Z" fill="#1C2436"/>
</g>
<defs>
<clipPath id="clip0_1393_8770">
<rect width="31.5" height="31.5" fill="white" transform="translate(10.9998 11)"/>
</clipPath>
</defs>
</svg>
