<svg width="54" height="54" viewBox="0 0 54 54" fill="none" xmlns="http://www.w3.org/2000/svg">
<rect width="54" height="54" rx="2" fill="#F6F6F9"/>
<g clip-path="url(#clip0_1393_3171)">
<path d="M13.1 20.5C13.3 20.8 13.6 21 14 21H19V24C19 24.6 19.4 25 20 25C20.6 25 21 24.6 21 24V21H22C22.6 21 23 20.6 23 20V14C23 13.4 22.6 13 22 13H14C13.6 13 13.3 13.2 13.1 13.5C12.9 13.8 12.9 14.2 13.1 14.5L14.8 17L13.2 19.4C13 19.8 12.9 20.1 13.1 20.5Z" fill="#4DF189"/>
<path d="M32 21H33V24C33 24.6 33.4 25 34 25C34.6 25 35 24.6 35 24V21H40C40.4 21 40.7 20.8 40.9 20.5C41.1 20.2 41.1 19.8 40.9 19.5L39.2 17L40.8 14.6C41 14.3 41 13.9 40.8 13.6C40.7 13.2 40.4 13 40 13H32C31.4 13 31 13.4 31 14V20C31 20.6 31.4 21 32 21Z" fill="#4DF189"/>
<path d="M35 35C31.6 35 29 37.3 29 40C29 40.6 29.4 41 30 41H40C40.6 41 41 40.6 41 40C41 37.3 38.4 35 35 35Z" fill="#1C2436"/>
<path d="M15 30C15 32.2 16.8 34 19 34C21.2 34 23 32.2 23 30C23 27.8 21.2 26 19 26C16.8 26 15 27.8 15 30ZM21 30C21 31.1 20.1 32 19 32C17.9 32 17 31.1 17 30C17 28.9 17.9 28 19 28C20.1 28 21 28.9 21 30Z" fill="#1C2436"/>
<path d="M19 35C15.6 35 13 37.3 13 40C13 40.6 13.4 41 14 41H24C24.6 41 25 40.6 25 40C25 37.3 22.4 35 19 35Z" fill="#1C2436"/>
<path d="M31 30C31 32.2 32.8 34 35 34C37.2 34 39 32.2 39 30C39 27.8 37.2 26 35 26C32.8 26 31 27.8 31 30ZM37 30C37 31.1 36.1 32 35 32C33.9 32 33 31.1 33 30C33 28.9 33.9 28 35 28C36.1 28 37 28.9 37 30Z" fill="#1C2436"/>
</g>
<defs>
<clipPath id="clip0_1393_3171">
<rect width="28" height="28" fill="white" transform="translate(13 13)"/>
</clipPath>
</defs>
</svg>
