<svg width="54" height="54" viewBox="0 0 54 54" fill="none" xmlns="http://www.w3.org/2000/svg">
<rect width="54" height="54" rx="2" fill="#F6F6F9"/>
<g clip-path="url(#clip0_1393_6802)">
<path d="M23.1 26.7C22.2 26.7 21.6 27.4 21.6 28.2C21.6 29.1 22.3 29.7 23.1 29.7C23.9 29.7 24.6 29 24.6 28.2C24.6 27.3 24 26.7 23.1 26.7Z" fill="#1C2436"/>
<path d="M30.9 26.7C30 26.7 29.4 27.4 29.4 28.2C29.4 29.1 30.1 29.7 30.9 29.7C31.7 29.7 32.4 29 32.4 28.2C32.4 27.4 31.7 26.7 30.9 26.7Z" fill="#1C2436"/>
<path d="M40.6 25C40.1 24.8 39.5 24.7 39 24.7H38C38 27.7 37.9 30.5 37.4 32.9H39.3C40.8 32.9 42 31.7 42 30.2V27.3C42 26.3 41.4 25.5 40.6 25Z" fill="#4DF189"/>
<path d="M35.6 18.7C33.7 16.2 30.8 15 27 15C23.2 15 20.3 16.2 18.4 18.7C17.2 20.2 16.4 22.3 16 24.7C16 27.7 16.2 30.5 16.6 32.9C18.5 38.2 23.4 41.4 27 41.4C30.6 41.4 35.5 38.2 37.4 32.9C38 30.5 38 27.7 38 24.7C37.6 22.2 36.8 20.2 35.6 18.7ZM27 39.6C25 39.6 21.7 38 19.6 34.9C21.1 35.6 22.8 35.9 24.3 35.9C24.7 36.6 25.6 37.1 26.7 37.1C28.1 37.1 29.3 36.3 29.3 35.3C29.3 34.3 28.1 33.5 26.7 33.5C25.6 33.5 24.7 33.9 24.3 34.6C22.1 34.5 19.7 34 18.2 32.2C17.8 31 17.6 29.7 17.6 28.3C17.6 27.9 17.6 27.5 17.6 27.2C20.2 26.8 22.6 24.2 22.7 20.9C22.7 20.5 22.9 20.9 23.3 21.5C23.4 21.6 23.5 21.8 23.7 22C26.2 24.9 29.4 24.6 31.1 25.9C30.9 25.2 30.6 24.7 30.3 24.3C33 24.6 35.1 25.4 36.3 26.5C36.4 27.1 36.4 27.8 36.4 28.5C36.4 35.6 30.2 39.6 27 39.6Z" fill="#1C2436"/>
<path d="M27 13.6C34.7 13.6 38.8 17.4 39 24.7C39.5 24.7 40.1 24.8 40.6 25C40.6 20.8 39.4 17.6 37 15.4C34.7 13.1 31.3 12 27 12C22.7 12 19.3 13.1 17 15.4C14.6 17.6 13.4 20.8 13.4 25C13.3 25 13.3 25.1 13.2 25.1C13.7 24.9 14.3 24.8 15 24.7C15.2 17.4 19.3 13.6 27 13.6Z" fill="#1C2436"/>
<path d="M14.7 32.9H16.6C16.2 30.5 16 27.7 16 24.7H15C14.3 24.8 13.5506 24.8495 13.2 25.1C12.5 25.6 12 26.4 12 27.3V30.2C12 31.7 13.2 32.9 14.7 32.9Z" fill="#4DF189"/>
</g>
<defs>
<clipPath id="clip0_1393_6802">
<rect width="30" height="29.5" fill="white" transform="translate(12 12)"/>
</clipPath>
</defs>
</svg>
