<svg width="102" height="18" viewBox="0 0 102 18" fill="none" xmlns="http://www.w3.org/2000/svg">
<path d="M24.9256 12.7943V5.50494H27.6226C28.2058 5.50494 28.6882 5.60213 29.0701 5.79651C29.4519 5.99089 29.7365 6.25817 29.924 6.59834C30.1114 6.93851 30.2051 7.32033 30.2051 7.7438C30.2051 8.14645 30.1149 8.51786 29.9344 8.85803C29.7539 9.19126 29.4727 9.462 29.0909 9.67027C28.7091 9.87159 28.2196 9.97226 27.6226 9.97226H26.2585V12.7943H24.9256ZM26.2585 8.88927H27.5393C28.0044 8.88927 28.3377 8.78861 28.539 8.58728C28.7472 8.37902 28.8514 8.09786 28.8514 7.7438C28.8514 7.38281 28.7472 7.10165 28.539 6.90032C28.3377 6.69206 28.0044 6.58792 27.5393 6.58792H26.2585V8.88927Z" fill="white"/>
<path d="M31.2196 12.7943V7.62926H32.4067L32.5317 8.5977C32.7191 8.26447 32.9725 8.00067 33.2919 7.80628C33.6181 7.60496 34 7.5043 34.4373 7.5043V8.9101H34.0624C33.7709 8.9101 33.5105 8.95522 33.2814 9.04547C33.0523 9.13572 32.8718 9.29192 32.7399 9.51407C32.615 9.73622 32.5525 10.0451 32.5525 10.4409V12.7943H31.2196Z" fill="white"/>
<path d="M37.7352 12.9192C37.2353 12.9192 36.7841 12.8047 36.3814 12.5756C35.9857 12.3465 35.6699 12.0306 35.4338 11.628C35.2047 11.2184 35.0902 10.7463 35.0902 10.2118C35.0902 9.67721 35.2082 9.20861 35.4442 8.80596C35.6803 8.39637 35.9962 8.07703 36.3919 7.84794C36.7945 7.61884 37.2458 7.5043 37.7456 7.5043C38.2385 7.5043 38.6828 7.61884 39.0785 7.84794C39.4811 8.07703 39.797 8.39637 40.0261 8.80596C40.2621 9.20861 40.3802 9.67721 40.3802 10.2118C40.3802 10.7463 40.2621 11.2184 40.0261 11.628C39.797 12.0306 39.4811 12.3465 39.0785 12.5756C38.6758 12.8047 38.2281 12.9192 37.7352 12.9192ZM37.7352 11.7634C38.0823 11.7634 38.3843 11.6349 38.6411 11.3781C38.898 11.1143 39.0264 10.7255 39.0264 10.2118C39.0264 9.69804 38.898 9.31275 38.6411 9.05588C38.3843 8.79208 38.0858 8.66018 37.7456 8.66018C37.3915 8.66018 37.0861 8.79208 36.8292 9.05588C36.5793 9.31275 36.4543 9.69804 36.4543 10.2118C36.4543 10.7255 36.5793 11.1143 36.8292 11.3781C37.0861 11.6349 37.3881 11.7634 37.7352 11.7634Z" fill="white"/>
<path d="M42.3113 6.82743C42.0683 6.82743 41.867 6.75454 41.7073 6.60875C41.5546 6.46296 41.4782 6.279 41.4782 6.05684C41.4782 5.83469 41.5546 5.65419 41.7073 5.51535C41.867 5.36956 42.0683 5.29667 42.3113 5.29667C42.5542 5.29667 42.7521 5.36956 42.9048 5.51535C43.0645 5.65419 43.1443 5.83469 43.1443 6.05684C43.1443 6.279 43.0645 6.46296 42.9048 6.60875C42.7521 6.75454 42.5542 6.82743 42.3113 6.82743ZM40.5931 15.0852V13.9501H40.9992C41.2283 13.9501 41.3914 13.905 41.4886 13.8148C41.5858 13.7245 41.6344 13.5718 41.6344 13.3566V7.62926H42.9673V13.3566C42.9673 13.9814 42.8076 14.4257 42.4883 14.6895C42.1759 14.9533 41.7489 15.0852 41.2075 15.0852H40.5931Z" fill="white"/>
<path d="M46.8679 12.9192C46.3472 12.9192 45.8856 12.8082 45.4829 12.586C45.0803 12.3639 44.7644 12.0515 44.5353 11.6488C44.3062 11.2462 44.1917 10.781 44.1917 10.2534C44.1917 9.71887 44.3028 9.24332 44.5249 8.82679C44.754 8.41026 45.0664 8.08744 45.4621 7.85835C45.8648 7.62231 46.3368 7.5043 46.8783 7.5043C47.3851 7.5043 47.8329 7.61537 48.2216 7.83752C48.6104 8.05967 48.9124 8.36513 49.1276 8.7539C49.3498 9.13572 49.4608 9.56267 49.4608 10.0347C49.4608 10.1111 49.4574 10.1909 49.4504 10.2742C49.4504 10.3576 49.4469 10.4443 49.44 10.5346H45.5142C45.5419 10.9372 45.6808 11.2531 45.9307 11.4822C46.1876 11.7113 46.4965 11.8258 46.8575 11.8258C47.1282 11.8258 47.3539 11.7668 47.5344 11.6488C47.7218 11.5238 47.8607 11.3642 47.9509 11.1698H49.3046C49.2074 11.4961 49.0443 11.7946 48.8152 12.0653C48.5931 12.3291 48.3154 12.5374 47.9821 12.6901C47.6559 12.8429 47.2844 12.9192 46.8679 12.9192ZM46.8783 8.58728C46.552 8.58728 46.2639 8.681 46.014 8.86844C45.7641 9.04894 45.6044 9.32663 45.535 9.70151H48.1071C48.0863 9.36134 47.9613 9.0906 47.7322 8.88927C47.5031 8.68795 47.2185 8.58728 46.8783 8.58728Z" fill="white"/>
<path d="M52.7917 12.7943C52.2502 12.7943 51.8163 12.6624 51.49 12.3986C51.1638 12.1348 51.0006 11.6662 51.0006 10.9928V8.74348H50.1155V7.62926H51.0006L51.1568 6.24428H52.3335V7.62926H53.7289V8.74348H52.3335V11.0032C52.3335 11.2531 52.3856 11.4267 52.4897 11.5238C52.6008 11.6141 52.7882 11.6592 53.0521 11.6592H53.6977V12.7943H52.7917Z" fill="white"/>
<path d="M57.3859 12.7943V5.50494H58.9687L61.2909 10.1285L63.5818 5.50494H65.1646V12.7943H63.8317V7.76463L61.8011 11.7529H60.7494L58.7188 7.76463V12.7943H57.3859Z" fill="white"/>
<path d="M69.026 12.9192C68.5262 12.9192 68.0749 12.8047 67.6723 12.5756C67.2766 12.3465 66.9607 12.0306 66.7247 11.628C66.4956 11.2184 66.381 10.7463 66.381 10.2118C66.381 9.67721 66.4991 9.20861 66.7351 8.80596C66.9711 8.39637 67.287 8.07703 67.6827 7.84794C68.0854 7.61884 68.5366 7.5043 69.0364 7.5043C69.5293 7.5043 69.9736 7.61884 70.3693 7.84794C70.772 8.07703 71.0879 8.39637 71.317 8.80596C71.553 9.20861 71.671 9.67721 71.671 10.2118C71.671 10.7463 71.553 11.2184 71.317 11.628C71.0879 12.0306 70.772 12.3465 70.3693 12.5756C69.9667 12.8047 69.5189 12.9192 69.026 12.9192ZM69.026 11.7634C69.3731 11.7634 69.6751 11.6349 69.932 11.3781C70.1888 11.1143 70.3173 10.7255 70.3173 10.2118C70.3173 9.69804 70.1888 9.31275 69.932 9.05588C69.6751 8.79208 69.3766 8.66018 69.0364 8.66018C68.6824 8.66018 68.3769 8.79208 68.1201 9.05588C67.8701 9.31275 67.7452 9.69804 67.7452 10.2118C67.7452 10.7255 67.8701 11.1143 68.1201 11.3781C68.3769 11.6349 68.6789 11.7634 69.026 11.7634Z" fill="white"/>
<path d="M72.8628 12.7943V7.62926H74.0395L74.1436 8.50398C74.3033 8.19852 74.5324 7.95554 74.8309 7.77504C75.1363 7.59455 75.4939 7.5043 75.9035 7.5043C76.5421 7.5043 77.0385 7.70562 77.3926 8.10827C77.7466 8.51092 77.9236 9.10101 77.9236 9.87854V12.7943H76.5907V10.0035C76.5907 9.55919 76.5005 9.21903 76.32 8.98299C76.1395 8.74695 75.8583 8.62894 75.4765 8.62894C75.1016 8.62894 74.7927 8.76084 74.5497 9.02464C74.3137 9.28845 74.1957 9.65639 74.1957 10.1285V12.7943H72.8628Z" fill="white"/>
<path d="M81.4996 12.7943C80.9581 12.7943 80.5242 12.6624 80.1979 12.3986C79.8716 12.1348 79.7085 11.6662 79.7085 10.9928V8.74348H78.8233V7.62926H79.7085L79.8647 6.24428H81.0414V7.62926H82.4368V8.74348H81.0414V11.0032C81.0414 11.2531 81.0935 11.4267 81.1976 11.5238C81.3087 11.6141 81.4961 11.6592 81.7599 11.6592H82.4055V12.7943H81.4996Z" fill="white"/>
<path d="M83.5812 12.7943V7.62926H84.7683L84.8933 8.5977C85.0807 8.26447 85.3341 8.00067 85.6534 7.80628C85.9797 7.60496 86.3615 7.5043 86.7989 7.5043V8.9101H86.424C86.1324 8.9101 85.8721 8.95522 85.643 9.04547C85.4139 9.13572 85.2334 9.29192 85.1015 9.51407C84.9766 9.73622 84.9141 10.0451 84.9141 10.4409V12.7943H83.5812Z" fill="white"/>
<path d="M90.128 12.9192C89.6073 12.9192 89.1457 12.8082 88.743 12.586C88.3404 12.3639 88.0245 12.0515 87.7954 11.6488C87.5663 11.2462 87.4518 10.781 87.4518 10.2534C87.4518 9.71887 87.5628 9.24332 87.785 8.82679C88.0141 8.41026 88.3265 8.08744 88.7222 7.85835C89.1248 7.62231 89.5969 7.5043 90.1384 7.5043C90.6452 7.5043 91.093 7.61537 91.4817 7.83752C91.8705 8.05967 92.1725 8.36513 92.3877 8.7539C92.6098 9.13572 92.7209 9.56267 92.7209 10.0347C92.7209 10.1111 92.7174 10.1909 92.7105 10.2742C92.7105 10.3576 92.707 10.4443 92.7001 10.5346H88.7743C88.802 10.9372 88.9409 11.2531 89.1908 11.4822C89.4477 11.7113 89.7566 11.8258 90.1176 11.8258C90.3883 11.8258 90.6139 11.7668 90.7944 11.6488C90.9819 11.5238 91.1207 11.3642 91.211 11.1698H92.5647C92.4675 11.4961 92.3044 11.7946 92.0753 12.0653C91.8531 12.3291 91.5754 12.5374 91.2422 12.6901C90.9159 12.8429 90.5445 12.9192 90.128 12.9192ZM90.1384 8.58728C89.8121 8.58728 89.524 8.681 89.2741 8.86844C89.0242 9.04894 88.8645 9.32663 88.7951 9.70151H91.3672C91.3464 9.36134 91.2214 9.0906 90.9923 8.88927C90.7632 8.68795 90.4786 8.58728 90.1384 8.58728ZM89.7635 7.21272V6.27552L92.1169 5.0051V6.08808L89.7635 7.21272Z" fill="white"/>
<path d="M95.6227 12.9192C95.1783 12.9192 94.8139 12.8498 94.5293 12.711C94.2446 12.5652 94.0329 12.3743 93.894 12.1382C93.7552 11.9022 93.6858 11.6419 93.6858 11.3572C93.6858 10.8782 93.8732 10.4895 94.2481 10.1909C94.623 9.89242 95.1853 9.74316 95.9351 9.74316H97.2471V9.6182C97.2471 9.26415 97.1465 9.00382 96.9451 8.8372C96.7438 8.67059 96.4939 8.58728 96.1954 8.58728C95.9246 8.58728 95.6886 8.65323 95.4873 8.78514C95.286 8.9101 95.161 9.09754 95.1124 9.34746H93.8107C93.8454 8.97258 93.9704 8.64629 94.1856 8.3686C94.4078 8.09091 94.6924 7.87918 95.0395 7.73339C95.3866 7.58066 95.7754 7.5043 96.2058 7.5043C96.9417 7.5043 97.5214 7.68827 97.9448 8.0562C98.3683 8.42414 98.58 8.94481 98.58 9.6182V12.7943H97.445L97.32 11.9612C97.1673 12.2389 96.9521 12.468 96.6744 12.6485C96.4036 12.829 96.0531 12.9192 95.6227 12.9192ZM95.9246 11.8779C96.3065 11.8779 96.6015 11.7529 96.8098 11.503C97.025 11.2531 97.1604 10.9442 97.2159 10.5762H96.0808C95.7268 10.5762 95.4734 10.6422 95.3207 10.7741C95.1679 10.899 95.0916 11.0552 95.0916 11.2427C95.0916 11.444 95.1679 11.6002 95.3207 11.7113C95.4734 11.8224 95.6747 11.8779 95.9246 11.8779Z" fill="white"/>
<path d="M99.852 12.7943V5.29667H101.185V12.7943H99.852Z" fill="white"/>
<path d="M0.550781 3.3276C0.550781 2.02053 1.61037 0.960938 2.91745 0.960938H14.7508C16.0579 0.960938 17.1174 2.02053 17.1174 3.3276V15.1609C17.1174 16.468 16.0579 17.5276 14.7508 17.5276H2.91745C1.61037 17.5276 0.550781 16.468 0.550781 15.1609V3.3276Z" fill="#6FB93E"/>
<path d="M13.5704 7.20653C13.4742 7.10988 13.346 7.05464 13.2132 7.05464C13.0758 7.05464 12.9475 7.10988 12.8559 7.20653L9.37537 10.7042C9.27921 10.8009 9.22425 10.9298 9.22425 11.0678C9.22425 11.2059 9.27921 11.3348 9.37537 11.4268C9.47155 11.5234 9.59978 11.5787 9.73258 11.5787C9.86997 11.5787 9.99821 11.5234 10.0898 11.4268L13.5704 7.92908C13.7719 7.73118 13.7719 7.40902 13.5704 7.20653Z" fill="white"/>
<path d="M12.8514 5.03907C12.7552 4.94243 12.627 4.8872 12.4942 4.8872C12.3568 4.8872 12.2285 4.94243 12.1369 5.03907L9.37537 7.81423C9.27921 7.91089 9.22425 8.03975 9.22425 8.17782C9.22425 8.31589 9.27921 8.44475 9.37537 8.53679C9.47155 8.63344 9.59978 8.68866 9.73258 8.68866C9.86997 8.68866 9.99821 8.63344 10.0898 8.53679L12.8514 5.76163C12.9475 5.66498 13.0025 5.53612 13.0025 5.39805C12.9979 5.26459 12.9475 5.13572 12.8514 5.03907Z" fill="white"/>
<path d="M10.9874 4.02171C10.8913 3.92506 10.763 3.87443 10.6256 3.87443C10.4882 3.87443 10.36 3.92966 10.2684 4.02171L9.37537 4.91914C9.27921 5.01579 9.22425 5.14466 9.22425 5.28272C9.22425 5.42079 9.27921 5.54966 9.37537 5.6417C9.47155 5.73835 9.59978 5.79357 9.73258 5.79357C9.86998 5.79357 9.99821 5.73835 10.0898 5.6417L10.9828 4.74426C11.1844 4.54636 11.1844 4.2196 10.9874 4.02171Z" fill="white"/>
<path d="M8.203 13.8477C8.203 14.5288 7.65344 15.0765 6.98023 15.0765C6.30243 15.0765 5.75745 14.5242 5.75745 13.8477V5.02974C5.75745 4.34861 6.30701 3.80094 6.98023 3.80094C7.65803 3.80094 8.203 4.35321 8.203 5.02974V13.8477Z" fill="white"/>
</svg>
